<svg xmlns="http://www.w3.org/2000/svg" viewBox="0 0 32 32">
  <rect width="32" height="32" rx="6" fill="#1a1040"/>
  <path d="M16 3C16 3 10 10 10 17C10 20.9 12.7 24 16 24C19.3 24 22 20.9 22 17C22 13.5 19.5 10 19.5 10C19.5 10 18.8 13 17 15C16.4 15.7 16 16 16 16C16 16 17.5 12 16 3Z" fill="#8b7fcf"/>
  <path d="M16 3C16 3 10 10 10 17C10 20.9 12.7 24 16 24C19.3 24 22 20.9 22 17C22 13.5 19.5 10 19.5 10C19.5 10 18.8 13 17 15C16.4 15.7 16 16 16 16C16 16 17.5 12 16 3Z" fill="#c9a84c" opacity="0.4"/>
</svg>
